<svg xmlns="http://www.w3.org/2000/svg" width="1200" height="630" viewBox="0 0 1200 630">
  <defs>
    <linearGradient id="bg" x1="0" y1="0" x2="1" y2="1">
      <stop offset="0" stop-color="#080a0f"/>
      <stop offset="1" stop-color="#111827"/>
    </linearGradient>
    <linearGradient id="line" x1="0" y1="0" x2="1" y2="0">
      <stop offset="0" stop-color="#22d3ee"/>
      <stop offset="1" stop-color="#a3e635"/>
    </linearGradient>
  </defs>
  <rect width="1200" height="630" fill="url(#bg)"/>
  <rect x="70" y="70" width="1060" height="490" rx="22" fill="#0d1117" stroke="#263241"/>
  <text x="100" y="155" font-family="Inter, Arial, sans-serif" font-size="52" font-weight="800" fill="#f8fafc">SYNAPSE</text>
  <text x="100" y="218" font-family="Inter, Arial, sans-serif" font-size="34" font-weight="600" fill="#d9f99d">Answers you can audit.</text>
  <text x="100" y="270" font-family="Inter, Arial, sans-serif" font-size="23" fill="#94a3b8">Evidence-first AI research agent</text>
  <rect x="100" y="330" width="1000" height="4" rx="2" fill="url(#line)"/>
  <g font-family="Inter, Arial, sans-serif" font-size="22" fill="#e2e8f0">
    <text x="105" y="395">source quote</text>
    <text x="310" y="395">fact ID</text>
    <text x="470" y="395">validator</text>
    <text x="655" y="395">patch diff</text>
    <text x="845" y="395">run quality</text>
  </g>
  <g fill="none" stroke="#334155" stroke-width="2">
    <rect x="100" y="430" width="220" height="72" rx="12"/>
    <rect x="345" y="430" width="220" height="72" rx="12"/>
    <rect x="590" y="430" width="220" height="72" rx="12"/>
    <rect x="835" y="430" width="220" height="72" rx="12"/>
  </g>
  <g font-family="Inter, Arial, sans-serif" font-size="18">
    <text x="122" y="474" fill="#22d3ee">quote grounded</text>
    <text x="367" y="474" fill="#a3e635">unsupported blocked</text>
    <text x="612" y="474" fill="#fbbf24">edits explained</text>
    <text x="857" y="474" fill="#f8fafc">live validated</text>
  </g>
</svg>
